<svg width="48" height="48" viewBox="0 0 48 48" fill="none" xmlns="http://www.w3.org/2000/svg">
<path d="M35 17.998C33.2095 17.9972 31.4467 18.4401 29.8691 19.2871C29.7252 18.9079 29.4693 18.5815 29.1354 18.3513C28.8016 18.121 28.4056 17.9978 28 17.998H20C19.7373 17.9979 19.4772 18.0495 19.2345 18.1499C18.9917 18.2504 18.7712 18.3977 18.5855 18.5835C18.3997 18.7692 18.2524 18.9897 18.1519 19.2325C18.0515 19.4752 17.9999 19.7353 18 19.998V43.998C17.9999 44.2607 18.0515 44.5208 18.1519 44.7635C18.2524 45.0063 18.3997 45.2268 18.5854 45.4125C18.7712 45.5983 18.9917 45.7456 19.2345 45.8461C19.4772 45.9465 19.7373 45.9982 20 45.998H28C28.2627 45.9982 28.5228 45.9465 28.7655 45.8461C29.0083 45.7456 29.2288 45.5983 29.4146 45.4125C29.6003 45.2268 29.7476 45.0063 29.8481 44.7635C29.9485 44.5208 30.0002 44.2607 30 43.998V32.998C30 32.4676 30.2107 31.9589 30.5858 31.5838C30.9609 31.2087 31.4696 30.998 32 30.998C32.5304 30.998 33.0391 31.2087 33.4142 31.5838C33.7893 31.9589 34 32.4676 34 32.998V43.998C33.9998 44.2607 34.0515 44.5208 34.1519 44.7635C34.2524 45.0063 34.3997 45.2268 34.5854 45.4125C34.7712 45.5983 34.9917 45.7456 35.2345 45.8461C35.4772 45.9465 35.7373 45.9982 36 45.998H44C44.2627 45.9982 44.5228 45.9465 44.7656 45.8461C45.0083 45.7456 45.2288 45.5983 45.4146 45.4125C45.6003 45.2268 45.7476 45.0063 45.8481 44.7635C45.9485 44.5208 46.0002 44.2607 46 43.998V28.998C45.9964 26.0817 44.8363 23.2859 42.7742 21.2238C40.7121 19.1617 37.9163 18.0016 35 17.998ZM42 41.998H38V32.998C38 31.4067 37.3679 29.8806 36.2426 28.7554C35.1174 27.6301 33.5913 26.998 32 26.998C30.4087 26.998 28.8826 27.6301 27.7574 28.7554C26.6321 29.8806 26 31.4067 26 32.998V41.998H22V21.998H26V23.4043C26.0002 23.8187 26.1291 24.2228 26.3689 24.5608C26.6087 24.8988 26.9474 25.154 27.3385 25.2912C27.7295 25.4284 28.1535 25.4408 28.5519 25.3267C28.9502 25.2126 29.3034 24.9777 29.5625 24.6543C30.4601 23.5143 31.6912 22.6831 33.084 22.2767C34.4768 21.8703 35.9617 21.909 37.3315 22.3874C38.7012 22.8658 39.8874 23.76 40.7243 24.9451C41.5613 26.1302 42.0073 27.5471 42 28.998V41.998ZM14 17.998H6C5.73732 17.9979 5.47718 18.0495 5.23446 18.1499C4.99174 18.2504 4.7712 18.3977 4.58545 18.5835C4.39971 18.7692 4.25239 18.9897 4.15194 19.2325C4.05148 19.4752 3.99985 19.7353 4 19.998V43.998C3.99985 44.2607 4.05148 44.5208 4.15193 44.7635C4.25239 45.0063 4.3997 45.2268 4.58545 45.4125C4.7712 45.5983 4.99174 45.7456 5.23446 45.8461C5.47718 45.9465 5.73732 45.9982 6 45.998H14C14.2627 45.9982 14.5228 45.9465 14.7655 45.8461C15.0083 45.7456 15.2288 45.5983 15.4146 45.4125C15.6003 45.2268 15.7476 45.0063 15.8481 44.7635C15.9485 44.5208 16.0002 44.2607 16 43.998V19.998C16.0002 19.7353 15.9485 19.4752 15.8481 19.2325C15.7476 18.9897 15.6003 18.7692 15.4146 18.5835C15.2288 18.3977 15.0083 18.2504 14.7655 18.1499C14.5228 18.0495 14.2627 17.9979 14 17.998ZM12 41.998H8V21.998H12V41.998ZM10.0293 3.084C9.15402 3.03161 8.27724 3.1578 7.45226 3.45489C6.62728 3.75199 5.87135 4.21378 5.23044 4.81219C4.58953 5.41059 4.07703 6.13311 3.72412 6.9358C3.37121 7.73849 3.18525 8.60457 3.17756 9.48138C3.16986 10.3582 3.3406 11.2274 3.67937 12.0362C4.01815 12.8449 4.51789 13.5763 5.1482 14.1859C5.77851 14.7954 6.52622 15.2704 7.34586 15.582C8.1655 15.8935 9.03994 16.035 9.916 15.998H9.97264C10.8502 16.0501 11.7292 15.9228 12.556 15.6237C13.3827 15.3246 14.1397 14.8601 14.7808 14.2586C15.422 13.6571 15.9337 12.9311 16.2848 12.1252C16.6359 11.3192 16.819 10.4501 16.8228 9.57092C16.8267 8.69179 16.6513 7.8211 16.3072 7.01206C15.9632 6.20302 15.4579 5.47262 14.822 4.86549C14.1862 4.25836 13.4333 3.78725 12.6092 3.48095C11.7852 3.17464 10.9073 3.03957 10.0293 3.084ZM9.97266 11.998H9.916C9.57014 12.04 9.21929 12.0076 8.88698 11.9029C8.55468 11.7982 8.24861 11.6236 7.98929 11.3909C7.72997 11.1582 7.5234 10.8728 7.38343 10.5538C7.24346 10.2347 7.17333 9.8894 7.17774 9.54102C7.17774 8.04882 8.29688 7.08398 10.0293 7.08398C10.3787 7.0374 10.734 7.06624 11.0713 7.16855C11.4086 7.27086 11.7201 7.44426 11.9848 7.67709C12.2494 7.90991 12.4611 8.19674 12.6056 8.51826C12.75 8.83979 12.8239 9.18854 12.8223 9.54102C12.8223 11.0332 11.7031 11.998 9.97266 11.998Z" fill="black"/>
</svg>
