<svg width="53" height="53" viewBox="0 0 53 53" fill="none" xmlns="http://www.w3.org/2000/svg">
<path d="M26.5 4.41666C21.8145 4.41666 17.3209 6.27797 14.0078 9.59111C10.6946 12.9043 8.83333 17.3978 8.83333 22.0833C8.83333 34.0083 24.4021 47.4792 25.0646 48.0533C25.4646 48.3955 25.9736 48.5835 26.5 48.5835C27.0264 48.5835 27.5354 48.3955 27.9354 48.0533C28.7083 47.4792 44.1667 34.0083 44.1667 22.0833C44.1667 17.3978 42.3054 12.9043 38.9922 9.59111C35.6791 6.27797 31.1855 4.41666 26.5 4.41666ZM26.5 43.3937C21.7963 38.9771 13.25 29.4592 13.25 22.0833C13.25 18.5692 14.646 15.199 17.1308 12.7142C19.6157 10.2293 22.9859 8.83333 26.5 8.83333C30.0141 8.83333 33.3843 10.2293 35.8692 12.7142C38.354 15.199 39.75 18.5692 39.75 22.0833C39.75 29.4592 31.2038 38.9992 26.5 43.3937ZM26.5 13.25C24.7529 13.25 23.0451 13.7681 21.5925 14.7387C20.1398 15.7093 19.0076 17.0889 18.3391 18.703C17.6705 20.317 17.4956 22.0931 17.8364 23.8066C18.1772 25.5201 19.0185 27.0941 20.2539 28.3294C21.4893 29.5648 23.0632 30.4061 24.7767 30.7469C26.4902 31.0878 28.2663 30.9128 29.8804 30.2443C31.4945 29.5757 32.874 28.4435 33.8447 26.9909C34.8153 25.5382 35.3333 23.8304 35.3333 22.0833C35.3333 19.7406 34.4027 17.4938 32.7461 15.8372C31.0895 14.1806 28.8427 13.25 26.5 13.25ZM26.5 26.5C25.6265 26.5 24.7726 26.241 24.0462 25.7557C23.3199 25.2703 22.7538 24.5806 22.4195 23.7735C22.0852 22.9665 21.9978 22.0784 22.1682 21.2217C22.3386 20.3649 22.7593 19.578 23.3769 18.9603C23.9946 18.3426 24.7816 17.9219 25.6384 17.7515C26.4951 17.5811 27.3831 17.6686 28.1902 18.0029C28.9972 18.3371 29.687 18.9032 30.1723 19.6296C30.6576 20.3559 30.9167 21.2098 30.9167 22.0833C30.9167 23.2547 30.4513 24.3781 29.6231 25.2064C28.7948 26.0347 27.6714 26.5 26.5 26.5Z" fill="black"/>
</svg>
