<svg width="191" height="98" viewBox="0 0 191 98" fill="none" xmlns="http://www.w3.org/2000/svg">
<path fill-rule="evenodd" clip-rule="evenodd" d="M124.681 2.56498H159.181L190.181 96.065H163.181L157.181 78.065H126.681L121.181 96.065H94.181L124.681 2.56498ZM142.681 28.065H141.681L132.681 58.565H151.681L142.681 28.065Z" fill="#D9D9D9"/>
<path d="M25.181 62.565H1.18105C-0.152285 74.3983 5.28105 97.765 37.681 96.565C70.181 96.065 76.181 85.565 78.181 72.565C78.681 62.065 80.681 45.565 42.681 38.065C18.681 32.065 33.181 19.565 43.681 22.065C53.681 23.565 53.6811 32.565 53.681 32.065L77.681 31.565C77.181 15.565 64.681 -2.43501 32.681 1.56498C7.08105 6.36498 2.68105 23.565 2.68105 32.065C3.68105 48.065 18.181 55.565 41.681 59.565C55.681 62.065 56.181 74.565 42.681 76.065C28.281 76.465 25.0144 67.2316 25.181 62.565Z" fill="#D9D9D9"/>
<path fill-rule="evenodd" clip-rule="evenodd" d="M124.681 2.56498H159.181L190.181 96.065H163.181L157.181 78.065H126.681L121.181 96.065H94.181L124.681 2.56498ZM142.681 28.065H141.681L132.681 58.565H151.681L142.681 28.065Z" stroke="black"/>
<path d="M25.181 62.565H1.18105C-0.152285 74.3983 5.28105 97.765 37.681 96.565C70.181 96.065 76.181 85.565 78.181 72.565C78.681 62.065 80.681 45.565 42.681 38.065C18.681 32.065 33.181 19.565 43.681 22.065C53.681 23.565 53.6811 32.565 53.681 32.065L77.681 31.565C77.181 15.565 64.681 -2.43501 32.681 1.56498C7.08105 6.36498 2.68105 23.565 2.68105 32.065C3.68105 48.065 18.181 55.565 41.681 59.565C55.681 62.065 56.181 74.565 42.681 76.065C28.281 76.465 25.0144 67.2316 25.181 62.565Z" stroke="black"/>
</svg>
