<svg width="62" height="46" viewBox="0 0 62 46" xmlns="http://www.w3.org/2000/svg">
<path d="M55.3647 0.660545H6.63956C4.93075 0.66249 3.29249 1.34217 2.08418 2.55048C0.875871 3.75879 0.196189 5.39705 0.194244 7.10586V38.8941C0.196189 40.6029 0.875871 42.2412 2.08418 43.4495C3.29249 44.6578 4.93075 45.3375 6.63956 45.3394H55.3646C57.0734 45.3375 58.7116 44.6578 59.9199 43.4495C61.1283 42.2412 61.8079 40.6029 61.8099 38.8941V7.10586C61.808 5.39705 61.1284 3.75877 59.9201 2.55045C58.7118 1.34213 57.0735 0.662456 55.3647 0.660545ZM43.9049 22.9912L59.2319 10.962V37.8696L43.9049 22.9912ZM6.63956 3.23867H55.3646C56.3899 3.23983 57.3728 3.64764 58.0978 4.37262C58.8228 5.09761 59.2306 6.08057 59.2318 7.10586V7.68465L34.4289 27.1518C33.5221 27.8598 32.4044 28.2439 31.254 28.2429C30.1035 28.242 28.9865 27.8561 28.0808 27.1467L2.77237 7.67975V7.10586C2.77353 6.08057 3.18134 5.09761 3.90632 4.37262C4.63131 3.64764 5.61427 3.23983 6.63956 3.23867ZM18.5554 23.0722L2.77237 37.9215V10.9323L18.5554 23.0722ZM55.3647 42.7613H6.63956C5.97935 42.7609 5.33023 42.5916 4.75399 42.2694C4.17775 41.9472 3.69357 41.4828 3.34755 40.9205L20.6254 24.6655L26.5012 29.1849C27.8601 30.2464 29.535 30.8227 31.2593 30.8223C32.9836 30.8218 34.6582 30.2446 36.0165 29.1825L41.8584 24.5984L58.6633 40.9102C58.3179 41.4753 57.8332 41.9423 57.2556 42.2664C56.6781 42.5905 56.027 42.7609 55.3647 42.7613Z" fill="currentColor" stroke="currentColor"/>
</svg>
