<svg width="59" height="59" viewBox="0 0 59 59" fill="none" xmlns="http://www.w3.org/2000/svg">
<path d="M40.8083 34.4167C40.3167 34.1708 37.1208 32.6958 36.6292 32.45C36.1375 32.2042 35.6458 32.2042 35.1542 32.6958C34.6625 33.1875 33.6792 34.6625 33.1875 35.1542C32.9417 35.6458 32.45 35.6458 31.9583 35.4C30.2375 34.6625 28.5167 33.6792 27.0417 32.45C25.8125 31.2208 24.5833 29.7458 23.6 28.2708C23.3542 27.7792 23.6 27.2875 23.8458 27.0417C24.0917 26.7958 24.3375 26.3042 24.8292 26.0583C25.075 25.8125 25.3208 25.3208 25.3208 25.075C25.5667 24.8292 25.5667 24.3375 25.3208 24.0917C25.075 23.8458 23.8458 20.8958 23.3542 19.6667C23.1083 17.9458 22.6167 17.9458 22.125 17.9458H20.8958C20.4042 17.9458 19.6667 18.4375 19.4208 18.6833C17.9458 20.1583 17.2083 21.8792 17.2083 23.8458C17.4542 26.0583 18.1917 28.2708 19.6667 30.2375C22.3708 34.1708 25.8125 37.3667 29.9917 39.3333C31.2208 39.825 32.2042 40.3167 33.4333 40.5625C34.6625 41.0542 35.8917 41.0542 37.3667 40.8083C39.0875 40.5625 40.5625 39.3333 41.5458 37.8583C42.0375 36.875 42.0375 35.8917 41.7917 34.9083L40.8083 34.4167ZM46.9542 12.0458C37.3667 2.45833 21.8792 2.45833 12.2917 12.0458C4.425 19.9125 2.95001 31.9583 8.35834 41.5458L4.91667 54.0833L17.9458 50.6417C21.6333 52.6083 25.5667 53.5917 29.5 53.5917C43.0208 53.5917 53.8375 42.775 53.8375 29.2542C54.0833 22.8625 51.3792 16.7167 46.9542 12.0458ZM40.3167 46.4625C37.1208 48.4292 33.4333 49.6583 29.5 49.6583C25.8125 49.6583 22.3708 48.675 19.175 46.9542L18.4375 46.4625L10.8167 48.4292L12.7833 41.0542L12.2917 40.3167C6.39167 30.4833 9.34167 18.1917 18.9292 12.0458C28.5167 5.9 40.8083 9.09583 46.7083 18.4375C52.6083 28.025 49.9042 40.5625 40.3167 46.4625Z" fill="black"/>
</svg>
